<svg id="Layer_1" data-name="Layer 1" xmlns="http://www.w3.org/2000/svg" viewBox="0 0 512 512"><defs><style>.cls-1{fill:#4abaeb;}.cls-2{fill:#e6e9ed;}</style></defs><rect class="cls-1" width="512" height="512" rx="26.05"/><path class="cls-2" d="M399.53,263.59v15.75a7.87,7.87,0,0,1-8.33,8,92.15,92.15,0,0,1-39.43-12.86c-27.42,17-67.55,17.25-95.72,0-27.42,17-67.55,17.25-95.72,0a89.79,89.79,0,0,1-39.58,12.91,7.87,7.87,0,0,1-8.33-8V263.34a7.75,7.75,0,0,1,6.78-7.83c10.82-1.15,21-5.08,28.77-11.17,6.88-5.43,16.75-6.58,23.48-1,19.09,15.8,53.44,15.85,72.38.84,6.84-5.43,16.56-6.48,23.29-.89,19.19,15.9,53.74,15.9,72.63.75a19.31,19.31,0,0,1,24,0,58,58,0,0,0,28.87,11.41A8,8,0,0,1,399.53,263.59Zm0,71.79v15.75a7.87,7.87,0,0,1-8.33,8,92.29,92.29,0,0,1-39.43-12.86c-27.42,17-67.55,17.24-95.72,0-27.42,17-67.55,17.24-95.72,0a89.79,89.79,0,0,1-39.58,12.91,7.87,7.87,0,0,1-8.33-8V335.13a7.75,7.75,0,0,1,6.78-7.83c10.82-1.15,21-5.08,28.77-11.17,6.88-5.43,16.75-6.58,23.48-1,19.09,15.8,53.44,15.85,72.38.84,6.84-5.43,16.56-6.48,23.29-.89,19.19,15.9,53.74,15.9,72.63.74a19.34,19.34,0,0,1,24,0,57.56,57.56,0,0,0,28.87,11.42A8,8,0,0,1,399.53,335.38Zm0,71.79v15.75a7.88,7.88,0,0,1-8.33,8A92.16,92.16,0,0,1,351.77,418c-27.42,17-67.55,17.25-95.72,0-27.42,17-67.55,17.25-95.72,0A89.67,89.67,0,0,1,120.75,431a7.88,7.88,0,0,1-8.33-8V406.92a7.75,7.75,0,0,1,6.78-7.83c10.82-1.15,21-5.09,28.77-11.17,6.88-5.43,16.75-6.58,23.48-1,19.09,15.8,53.44,15.85,72.38.84,6.84-5.43,16.56-6.48,23.29-.89,19.19,15.9,53.74,15.9,72.63.74a19.34,19.34,0,0,1,24,0A57.56,57.56,0,0,0,392.65,399,8,8,0,0,1,399.53,407.17Z"/><path class="cls-2" d="M407.55,172a37.25,37.25,0,0,1-37.25,37.25H370a37.25,37.25,0,0,1-27.68-61.89V88.21a27.94,27.94,0,0,1,55.88,0v59.18A37.09,37.09,0,0,1,407.55,172Zm-23.28-19.36V88.21a14,14,0,1,0-27.94,0v64.46c-3.7,4.2-9.26,9.35-9.31,19.24a23.38,23.38,0,0,0,23.11,23.4h.17A23.3,23.3,0,0,0,393.58,172C393.58,162,388,156.84,384.27,152.67Zm-14,38A18.62,18.62,0,0,1,361,155.9V125.46a9.31,9.31,0,0,1,18.62,0V155.9a18.62,18.62,0,0,1-9.31,34.75Z"/><path class="cls-2" d="M299.34,161.42a39,39,0,0,1-39,39H148.3a43.87,43.87,0,0,1-14.56-85.24c0-.82-.06-1.64-.06-2.46a48.72,48.72,0,0,1,91-24.3,29.21,29.21,0,0,1,45.46,24.3,29.57,29.57,0,0,1-1.94,10.53A39,39,0,0,1,299.34,161.42Z"/></svg>
